<?xml version="1.0" encoding="utf-8"?>
<!-- Generator: Adobe Illustrator 21.1.0, SVG Export Plug-In . SVG Version: 6.00 Build 0)  -->
<svg version="1.1" id="Layer_1" xmlns="http://www.w3.org/2000/svg" xmlns:xlink="http://www.w3.org/1999/xlink" x="0px" y="0px"
	 viewBox="0 0 416 416" style="enable-background:new 0 0 416 416;" xml:space="preserve">
<style type="text/css">
	.st0{opacity:0.27;}
	.st1{fill:#FFFFFF;}
	.st2{opacity:0.45;}
</style>
<g class="st0">
	<path class="st1" d="M208,413.5c113.5,0,205.5-92,205.5-205.5S321.5,2.5,208,2.5S2.5,94.5,2.5,208S94.5,413.5,208,413.5z
		 M208,396.1c-103.9,0-188.1-84.2-188.1-188.1S104.1,19.9,208,19.9S396.1,104.1,396.1,208S311.9,396.1,208,396.1z"/>
</g>
<g>
	<path class="st1" d="M392.7,172.4l17.1-3.3c-13.8-72-65.2-130.7-133-154.8L271,30.7C333.1,52.8,380.1,106.5,392.7,172.4z"/>
</g>
<g>
	<path class="st1" d="M19.9,208c0-41,13.1-78.9,35.3-109.8L41.1,88.1C16.8,121.8,2.5,163.2,2.5,208c0,43.8,13.7,84.4,37.1,117.8
		l14.3-10C32.5,285.3,19.9,248.1,19.9,208z"/>
</g>
<g class="st2">
	<path class="st1" d="M337.6,344.3c-33.7,32.1-79.4,51.8-129.6,51.8c-94.1,0-172.1-69.2-185.9-159.4l-17.2,2.7
		C19.9,337.9,105.1,413.5,208,413.5c54.9,0,104.7-21.5,141.6-56.5L337.6,344.3z"/>
</g>
</svg>
